<svg xmlns="http://www.w3.org/2000/svg" width="49.894" height="51.333" viewBox="0 0 49.894 51.333"><g id="Grupo_39156" data-name="Grupo 39156" transform="translate(-840.79 159.467)"><path id="Caminho_9" data-name="Caminho 9" d="M862.331-159.095a1.781,1.781,0,0,0-1.855-.161,8.219,8.219,0,0,0-1.589.856l-.02.011a1.659,1.659,0,0,0-.935,1.672l2.692,18.123,4.092-2.185L862.572-153.1l6.064,6.042,4.189-2.472Z" transform="translate(-2.117 -0.032)" fill="#062a67"></path><path id="Caminho_10" data-name="Caminho 10" d="M841.5-131.768a1.792,1.792,0,0,0-.7,1.727,8.189,8.189,0,0,0,.349,1.77l0,.025a1.656,1.656,0,0,0,1.319,1.387l17.877,2.79-.685-4.518L847.3-130.223l8.163-4.317-1.18-4.735Z" transform="translate(0 -2.523)" fill="#ae1022"></path><path id="Caminho_11" data-name="Caminho 11" d="M861.05-104.764c.076.574.772,1.06,1.423,1.207a8.463,8.463,0,0,0,1.792.215l.025,0a1.653,1.653,0,0,0,1.726-.826l8.061-15.943-4.564-.673-5.2,10.985-1.408-8.537-4.751-.449Z" transform="translate(-2.145 -4.808)" fill="#ae1022"></path><path id="Caminho_12" data-name="Caminho 12" d="M892.752-114.988a1.781,1.781,0,0,0,1.583-.982,8.292,8.292,0,0,0,.761-1.637l.01-.023a1.652,1.652,0,0,0-.252-1.9L882.1-132.2l-2.1,4.09,8.977,8.47-8.837-1.265-2.049,4.489Z" transform="translate(-4.608 -3.397)" fill="#ae1022"></path><path id="Caminho_13" data-name="Caminho 13" d="M893.022-148.294a1.789,1.789,0,0,0-.445-1.811,8.284,8.284,0,0,0-1.324-1.231l-.015-.015a1.651,1.651,0,0,0-1.884-.344l-16.184,8.306,3.239,3.363,11.017-6.115-4.219,8.2,3.788,3.453Z" transform="translate(-4.001 -0.969)" fill="#ae1022"></path></g></svg>